<svg width="20" height="18" viewBox="0 0 20 18" fill="none" xmlns="http://www.w3.org/2000/svg">
<path fill-rule="evenodd" clip-rule="evenodd" d="M8.56155 0C7.18495 0 5.985 0.936891 5.65113 2.27239L5.21922 4H3C1.34315 4 0 5.34315 0 7V15C0 16.6569 1.34315 18 3 18H17C18.6569 18 20 16.6569 20 15V7C20 5.34315 18.6569 4 17 4H14.7808L14.3489 2.27239C14.015 0.936892 12.8151 0 11.4384 0H8.56155ZM12.7192 4L12.4086 2.75746C12.2973 2.3123 11.8973 2 11.4384 2H8.56155C8.10268 2 7.7027 2.3123 7.59141 2.75746L7.28078 4H12.7192ZM4.71922 6H3C2.44772 6 2 6.44772 2 7V15C2 15.5523 2.44772 16 3 16H17C17.5523 16 18 15.5523 18 15V7C18 6.44772 17.5523 6 17 6H15.2808H14H6H4.71922ZM6 11C6 13.2091 7.79086 15 10 15C12.2091 15 14 13.2091 14 11C14 8.79086 12.2091 7 10 7C7.79086 7 6 8.79086 6 11ZM10 13C8.89543 13 8 12.1046 8 11C8 9.89543 8.89543 9 10 9C11.1046 9 12 9.89543 12 11C12 12.1046 11.1046 13 10 13ZM15 8C15 8.55229 15.4477 9 16 9C16.5523 9 17 8.55228 17 8C17 7.44772 16.5523 7 16 7C15.4477 7 15 7.44772 15 8Z" fill="black"/>
</svg>
