<svg width="20" height="18" viewBox="0 0 20 18" fill="none" xmlns="http://www.w3.org/2000/svg">
<path fill-rule="evenodd" clip-rule="evenodd" d="M8.97152 17.2157L9.99939 15.5L11.053 17.2C10.4168 17.5943 9.61362 17.6003 8.97152 17.2157ZM8.49157 3.50745C7.71856 2.98243 6.70865 2.5 5.60747 2.5C3.08212 2.5 1.59985 4.35714 2.09394 6.90625C2.93987 11.2706 9.99939 15.5 9.99939 15.5C8.97152 17.2157 8.97191 17.2159 8.97152 17.2157L8.96752 17.2133L8.96095 17.2093L8.9402 17.1967C8.92305 17.1863 8.89931 17.1718 8.8694 17.1533C8.80959 17.1164 8.725 17.0636 8.61891 16.996C8.40691 16.8607 8.10812 16.6655 7.74906 16.4184C7.03368 15.9259 6.06543 15.2178 5.06254 14.3585C4.06529 13.5039 2.99565 12.4675 2.10359 11.3133C1.22404 10.1752 0.424685 8.80467 0.130483 7.28682C-0.205204 5.55495 0.0965686 3.8269 1.15486 2.50009C2.21997 1.16473 3.84152 0.5 5.60747 0.5C7.43114 0.5 8.94705 1.35898 9.8875 2.04462C9.92537 2.07223 9.96267 2.09983 9.99939 2.12737C10.0361 2.09983 10.0734 2.07223 10.1113 2.04462C11.0517 1.35898 12.5676 0.5 14.3913 0.5C18.3364 0.5 20.6123 4.15474 19.8509 7.36746C19.5018 8.84055 18.693 10.1821 17.8118 11.3083C16.9183 12.4501 15.8623 13.4815 14.8797 14.336C13.8921 15.1949 12.9444 15.9046 12.245 16.3991C11.8941 16.6473 11.6027 16.8434 11.396 16.9793C11.2927 17.0473 11.2103 17.1003 11.1521 17.1374C11.1374 17.1468 11.1242 17.1552 11.1126 17.1625C11.1013 17.1697 11.0915 17.1759 11.0833 17.181L11.0632 17.1936L11.0569 17.1976L11.053 17.2C11.0526 17.2002 11.053 17.2 9.99939 15.5C9.99939 15.5 16.8786 11.2363 17.9048 6.90625C18.3989 4.82142 16.9167 2.5 14.3913 2.5C13.2901 2.5 12.2802 2.98243 11.5072 3.50745C10.5845 4.13411 9.99939 4.82143 9.99939 4.82143C9.99939 4.82143 9.41423 4.13411 8.49157 3.50745Z" fill="black"/>
</svg>
