<svg width="259" height="304" viewBox="0 0 259 304" fill="none" xmlns="http://www.w3.org/2000/svg">
<path d="M188.164 3.13819C169.443 9.6652 153.217 21.8551 141.736 38.0177C130.254 54.1803 124.086 73.5147 124.086 93.3403V95.4861C124.102 82.9607 121.647 70.5552 116.86 58.9805C112.073 47.4058 105.05 36.8895 96.1912 28.0343C108.011 16.2117 122.721 7.69205 138.858 3.32398C154.995 -1.04409 171.994 -1.10815 188.164 3.13819Z" fill="#ED5B33"/>
<path d="M259 95.486V193.386C259 200.855 256.033 208.019 250.751 213.3C245.47 218.582 238.306 221.549 230.837 221.549C223.368 221.549 216.204 218.582 210.923 213.3C205.641 208.019 202.674 200.855 202.674 193.386V95.486C202.674 73.8568 185.02 56.326 163.246 56.326C141.81 56.326 124.37 73.315 123.828 94.4775C123.823 94.0966 123.817 93.7211 123.817 93.3402C123.817 73.5146 129.986 54.1801 141.467 38.0175C152.949 21.855 169.175 9.66508 187.895 3.13806C208.282 8.51644 226.315 20.4936 239.178 37.1999C252.041 53.9061 259.011 74.4013 259 95.486Z" fill="#F36C2E"/>
<path fill-rule="evenodd" clip-rule="evenodd" d="M123.917 170.089V95.4861C123.919 82.9463 121.45 70.5292 116.651 58.9437C111.853 47.3582 104.82 36.8315 95.9529 27.9645C87.086 19.0976 76.5592 12.0642 64.9737 7.26597C53.3883 2.46778 40.9711 -0.00121566 28.4314 0H28.0505C20.591 0.0298386 13.448 3.01788 8.18915 8.3084C2.93029 13.5989 -0.0148537 20.7597 6.54154e-05 28.2192C0.0149845 35.6788 2.98875 42.8277 8.26873 48.0972C13.5487 53.3666 20.7036 56.3261 28.1632 56.3261C38.4309 56.3955 48.5226 60.5284 55.7585 67.8135C62.9943 75.0986 67.5916 85.2181 67.5914 95.4861V168.005C74.2774 160.473 84.0325 155.727 94.896 155.727C106.73 155.727 117.248 161.359 123.917 170.089Z" fill="#DB2542"/>
<path fill-rule="evenodd" clip-rule="evenodd" d="M123.044 192.143C123.044 207.697 110.435 220.306 94.8808 220.306C79.3268 220.306 66.7178 207.697 66.7178 192.143C66.7178 176.589 79.3268 163.98 94.8808 163.98C110.435 163.98 123.044 176.589 123.044 192.143Z" fill="#DB2542"/>
<path d="M93 303.262V280.419C93 277.048 92.3333 274.588 91 273.038C89.6918 271.488 87.5409 270.713 84.5472 270.713C83.1635 270.713 81.6792 271.094 80.0943 271.857C78.5346 272.62 77.3145 273.567 76.434 274.698V303.262H67V263.738H73.7925L75.5283 267.428C78.0943 264.476 81.8805 263 86.8868 263C91.6918 263 95.478 264.415 98.2453 267.244C101.038 270.049 102.434 273.973 102.434 279.016V303.262H93Z" fill="url(#paint0_linear_338_43)"/>
<path d="M148.736 286.323H119.868C120.044 289.472 121.151 291.92 123.189 293.667C125.226 295.414 127.969 296.287 131.415 296.287C135.717 296.287 138.987 295.192 141.226 293.003L144.887 300.051C141.566 302.684 136.61 304 130.019 304C123.855 304 118.975 302.241 115.377 298.723C111.805 295.18 110.019 290.247 110.019 283.924C110.019 277.7 111.981 272.656 115.906 268.794C119.855 264.931 124.585 263 130.094 263C135.956 263 140.66 264.71 144.208 268.13C147.755 271.549 149.528 275.904 149.528 281.194C149.528 282.325 149.264 284.035 148.736 286.323ZM120.208 279.385H140.057C139.403 273.604 136.132 270.713 130.245 270.713C124.862 270.713 121.516 273.604 120.208 279.385Z" fill="url(#paint1_linear_338_43)"/>
<path d="M203.906 303.262V278.5C203.906 273.308 201.528 270.713 196.774 270.713C195.365 270.713 194.006 271.119 192.698 271.931C191.39 272.743 190.472 273.677 189.943 274.735V303.262H180.509V277.06C180.509 275.117 179.893 273.579 178.66 272.447C177.428 271.291 175.692 270.713 173.453 270.713C172.27 270.713 170.975 271.143 169.566 272.005C168.182 272.866 167.176 273.813 166.547 274.846V303.262H157.113V263.738H163.604L165.528 267.207C168.145 264.402 171.528 263 175.679 263C181.038 263 185.075 264.427 187.792 267.281C188.975 265.977 190.623 264.944 192.736 264.181C194.849 263.394 196.962 263 199.076 263C203.579 263 207.075 264.267 209.566 266.801C212.082 269.311 213.34 272.767 213.34 277.171V303.262H203.906Z" fill="url(#paint2_linear_338_43)"/>
<path d="M249.566 303.299V299.977C248.233 301.085 246.396 302.032 244.057 302.819C241.717 303.606 239.566 304 237.604 304C228.22 304 223.528 299.129 223.528 289.386V263.738H232.962V288.685C232.962 293.753 235.289 296.287 239.943 296.287C242.082 296.287 244.069 295.746 245.906 294.663C247.742 293.581 248.962 292.326 249.566 290.899V263.738H259V303.299H249.566Z" fill="url(#paint3_linear_338_43)"/>
<defs>
<linearGradient id="paint0_linear_338_43" x1="266.18" y1="275.426" x2="42.3535" y2="275.426" gradientUnits="userSpaceOnUse">
<stop stop-color="#F36C2E"/>
<stop offset="1" stop-color="#DB2542"/>
</linearGradient>
<linearGradient id="paint1_linear_338_43" x1="266.18" y1="275.426" x2="42.3535" y2="275.426" gradientUnits="userSpaceOnUse">
<stop stop-color="#F36C2E"/>
<stop offset="1" stop-color="#DB2542"/>
</linearGradient>
<linearGradient id="paint2_linear_338_43" x1="266.18" y1="275.426" x2="42.3535" y2="275.426" gradientUnits="userSpaceOnUse">
<stop stop-color="#F36C2E"/>
<stop offset="1" stop-color="#DB2542"/>
</linearGradient>
<linearGradient id="paint3_linear_338_43" x1="266.18" y1="275.426" x2="42.3535" y2="275.426" gradientUnits="userSpaceOnUse">
<stop stop-color="#F36C2E"/>
<stop offset="1" stop-color="#DB2542"/>
</linearGradient>
</defs>
</svg>
