<svg width="18" height="18" viewBox="0 0 18 18" fill="none" xmlns="http://www.w3.org/2000/svg">
<path fill-rule="evenodd" clip-rule="evenodd" d="M8.5 0C7.03869 0 4.95958 0.566868 3.2282 1.81347C1.46154 3.08546 0 5.1142 0 8C0 9.73431 0.580861 11.0491 1.16795 11.9297C1.42134 12.3098 1.67606 12.6096 1.88672 12.83L1.02986 16.2575C0.93514 16.6363 1.06964 17.0357 1.37427 17.28C1.6789 17.5244 2.09791 17.5691 2.44721 17.3944L6.05585 15.5901C8.09997 16.275 10.9005 16.0415 13.23 14.9712C15.7838 13.7978 18 11.502 18 8C18 4.8429 16.3898 2.79444 14.394 1.58271C12.448 0.401213 10.1304 0 8.5 0ZM3.97014 12.7425C4.06714 12.3545 3.92361 11.9463 3.60577 11.7044L3.60223 11.7016C3.59604 11.6966 3.58327 11.6862 3.56485 11.6704C3.52795 11.6388 3.46879 11.5858 3.39461 11.5116C3.24575 11.3628 3.03979 11.1319 2.83205 10.8203C2.41914 10.2009 2 9.26569 2 8C2 5.8858 3.03846 4.41454 4.3968 3.43653C5.79042 2.43313 7.46131 2 8.5 2C9.86956 2 11.802 2.34879 13.356 3.29229C14.8602 4.20556 16 5.6571 16 8C16 10.498 14.4662 12.2022 12.395 13.1538C10.2754 14.1277 7.82583 14.1945 6.39392 13.5809C6.12355 13.465 5.81588 13.474 5.55279 13.6056L3.49747 14.6332L3.97014 12.7425ZM6.59152 4.06442C6.98632 3.8933 7.37688 4.08568 7.54918 4.37629L8.34334 5.7157C8.50389 5.98648 8.49705 6.37812 8.20239 6.64135C8.07611 6.75416 7.90132 6.89246 7.73867 7.02116L7.73866 7.02117L7.73863 7.0212C7.64934 7.09185 7.56371 7.15961 7.49176 7.21866C8.24077 8.61027 9.29975 9.26652 9.78412 9.50817L10.3683 8.83621C10.6442 8.51896 11.1115 8.45182 11.4544 8.66953C11.7717 8.87092 12.2107 9.14218 12.6095 9.36924C12.8754 9.52068 13.056 9.82988 12.9841 10.1742C12.8551 10.7925 12.574 11.2397 12.1896 11.538C11.8117 11.8313 11.3724 11.9509 10.9735 11.987C10.189 12.0582 9.45346 11.8157 9.31926 11.7691C9.28528 11.7572 9.25721 11.7449 9.22714 11.7292C9.08425 11.6545 8.24268 11.2029 7.35157 10.4696C6.46973 9.74385 5.48606 8.69916 5.13687 7.4263C4.88037 6.49132 5.00548 5.73901 5.33702 5.16471C5.66276 4.60048 6.16332 4.25002 6.59152 4.06442Z" fill="black"/>
</svg>
